# File created by Blade
# Date/Time:  Tue Jan 27 19:05:11 2015
#---------------------------------------------------------
:version 1.10
:name HOM
:units
  mass 1.0
  length 1.000000
  angle deg
:documentation
     Acclaim Skeleton File
:root
   axis xyz
   order TX TY TZ RX RY RZ
   position 0.000000 0.000000 0.000000
   orientation 0 0 0
:bonedata
   begin
      id 1
      name Spine_dum
      direction 0.000000 1.000000 0.000000
      length 5.195262
      axis 0.0 0.0 0.0 xyz
   end
   begin
      id 2
      name LeftUpLeg_dum
      direction 1.000000 0.000000 0.000000
      length 3.351363
      axis 0.0 0.0 0.0 xyz
   end
   begin
      id 3
      name RightUpLeg_dum
      direction -1.000000 0.000000 0.000000
      length 3.351363
      axis 0.0 0.0 0.0 xyz
   end
   begin
      id 4
      name Spine
      direction 0.000000 1.000000 0.000000
      length 0.000000
      axis 0.0 0.0 0.0 xyz
      dof rx ry rz
   end
   begin
      id 5
      name Spine_dum1
      direction 0.000000 1.000000 0.000000
      length 15.653875
      axis 0.0 0.0 0.0 xyz
   end
   begin
      id 6
      name Spine_dum2
      direction 0.000000 1.000000 0.000000
      length 10.329768
      axis 0.0 0.0 0.0 xyz
   end
   begin
      id 7
      name Spine_dum3
      direction 0.000000 1.000000 0.000000
      length 10.329768
      axis 0.0 0.0 0.0 xyz
   end
   begin
      id 8
      name Head
      direction 0.000000 1.000000 0.000000
      length 4.527550
      axis 0.0 0.0 0.0 xyz
      dof rx ry rz
   end
   begin
      id 9
      name LeftShoulder
      direction 1.000000 0.000000 0.000000
      length 6.996006
      axis 0.0 0.0 -90.0 xyz
      dof rx ry rz
   end
   begin
      id 10
      name LeftArm
      direction 1.000000 0.000000 0.000000
      length 10.209302
      axis 0.0 0.0 -90.0 xyz
      dof rx ry rz
   end
   begin
      id 11
      name LeftForeArm
      direction 1.000000 0.000000 0.000000
      length 8.563163
      axis 0.0 0.0 -90.0 xyz
      dof ry rz rx
   end
   begin
      id 12
      name LeftHand
      direction 0.000000 0.000000 0.000000
      length 0.000000
      axis 0.0 0.0 -90.0 xyz
      dof rx ry rz
   end
   begin
      id 13
      name LeftHand_dum1
      direction 0.000000 0.000000 0.000000
      length 0.000000
      axis 0.0 0.0 -90.0 xyz
   end
   begin
      id 14
      name LeftHand_dum2
      direction 1.000000 0.000000 0.000000
      length 3.937000
      axis 0.0 0.0 -90.0 xyz
   end
   begin
      id 15
      name LeftHandThumb1
      direction 0.000000 0.000000 1.000000
      length 3.937000
      axis 0.0 0.0 -90.0 xyz
      dof rx rz ry
   end
   begin
      id 16
      name RightShoulder
      direction -1.000000 0.000000 0.000000
      length 6.996006
      axis 0.0 0.0 90.0 xyz
      dof rx ry rz
   end
   begin
      id 17
      name RightArm
      direction -1.000000 0.000000 0.000000
      length 10.209302
      axis 0.0 0.0 90.0 xyz
      dof rx ry rz
   end
   begin
      id 18
      name RightForeArm
      direction -1.000000 0.000000 0.000000
      length 8.563163
      axis 0.0 0.0 90.0 xyz
      dof ry rz rx
   end
   begin
      id 19
      name RightHand
      direction 0.000000 0.000000 0.000000
      length 0.000000
      axis 0.0 0.0 90.0 xyz
      dof rx ry rz
   end
   begin
      id 20
      name RightHand_dum1
      direction 0.000000 0.000000 0.000000
      length 0.000000
      axis 0.0 0.0 90.0 xyz
   end
   begin
      id 21
      name RightHand_dum2
      direction -1.000000 0.000000 0.000000
      length 3.937000
      axis 0.0 0.0 90.0 xyz
   end
   begin
      id 22
      name RightHandThumb1
      direction 0.000000 0.000000 1.000000
      length 3.937000
      axis 0.0 0.0 90.0 xyz
      dof rx rz ry
   end
   begin
      id 23
      name LeftUpLeg
      direction 0.000000 -1.000000 0.000000
      length 16.346831
      axis 0.0 0.0 0.0 xyz
      dof rx ry rz
   end
   begin
      id 24
      name LeftLeg
      direction 0.000000 -1.000000 0.000000
      length 13.959795
      axis 0.0 0.0 0.0 xyz
      dof rx ry rz
   end
   begin
      id 25
      name LeftFoot
      direction 0.000000 -0.258819 0.965926
      length 5.165550
      axis 15.0 0.0 0.0 xyz
      dof rx ry rz
   end
   begin
      id 26
      name LeftToeBase
      direction 0.000000 0.000000 1.000000
      length 2.952750
      axis 0.0 0.0 0.0 xyz
      dof rx ry rz
   end
   begin
      id 27
      name RightUpLeg
      direction 0.000000 -1.000000 0.000000
      length 16.346831
      axis 0.0 0.0 0.0 xyz
      dof rx ry rz
   end
   begin
      id 28
      name RightLeg
      direction 0.000000 -1.000000 0.000000
      length 13.959795
      axis 0.0 0.0 0.0 xyz
      dof rx ry rz
   end
   begin
      id 29
      name RightFoot
      direction 0.000000 -0.258819 0.965926
      length 5.165550
      axis 15.0 0.0 0.0 xyz
      dof rx ry rz
   end
   begin
      id 30
      name RightToeBase
      direction 0.000000 0.000000 1.000000
      length 2.952750
      axis 0.0 0.0 0.0 xyz
      dof rx ry rz
   end
:hierarchy
   begin
      root Spine_dum LeftUpLeg_dum RightUpLeg_dum
      Spine_dum Spine
      LeftUpLeg_dum LeftUpLeg
      RightUpLeg_dum RightUpLeg
      Spine Spine_dum1 Spine_dum2 Spine_dum3
      Spine_dum1 Head
      Spine_dum2 LeftShoulder
      Spine_dum3 RightShoulder
      LeftShoulder LeftArm
      LeftArm LeftForeArm
      LeftForeArm LeftHand
      LeftHand LeftHand_dum1 LeftHand_dum2
      LeftHand_dum1 LeftHandThumb1
      RightShoulder RightArm
      RightArm RightForeArm
      RightForeArm RightHand
      RightHand RightHand_dum1 RightHand_dum2
      RightHand_dum1 RightHandThumb1
      LeftUpLeg LeftLeg
      LeftLeg LeftFoot
      LeftFoot LeftToeBase
      RightUpLeg RightLeg
      RightLeg RightFoot
      RightFoot RightToeBase
   end

# File created by Blade
# Date/Time:  Tue Jan 27 19:05:02 2015
# Frame Rate: 120.000 fps
#------------------------------------------------------
:FULLY-SPECIFIED
:DEGREES
1599
root -2.930953 31.628148 -4.422132 4.809402 9.218884 -3.141398
Spine -4.016226 -7.168297 -2.002511
Head 16.372538 -3.346883 6.933171
LeftShoulder -17.626258 15.756742 13.411648
LeftArm 13.472410 -41.981986 -72.320888
LeftForeArm -8.791174 -0.000000 98.590287
LeftHand -13.127226 -0.000000 16.133614
LeftHandThumb1 -26.253704 0.000000 33.147579
RightShoulder -13.500570 -4.246499 -10.670403
RightArm 5.858631 -29.776591 84.736582
RightForeArm -24.236937 -0.000000 21.392429
RightHand -14.449757 0.000000 10.632778
RightHandThumb1 -24.326973 -0.000000 -32.862282
LeftUpLeg -7.819407 -12.436204 -4.562023
LeftLeg 19.609143 -0.000000 -0.000000
LeftFoot -24.831058 21.112214 -9.903242
LeftToeBase 9.682761 -0.000000 -0.000000
RightUpLeg -23.735234 -11.142814 3.137461
RightLeg 96.733154 -0.000000 -0.000000
RightFoot -14.899021 -8.015698 28.909888
RightToeBase 4.146874 -0.000000 -0.000000
1600
root -2.933784 31.620616 -4.422849 4.799097 8.781556 -3.077892
Spine -3.918464 -6.946935 -2.076811
Head 16.314972 -3.313986 6.815082
LeftShoulder -17.811468 15.918960 13.341011
LeftArm 13.431990 -41.935982 -72.357873
LeftForeArm -8.869524 -0.000000 98.946991
LeftHand -13.142988 0.000000 15.906898
LeftHandThumb1 -26.253704 0.000000 33.147579
RightShoulder -13.446806 -4.149694 -10.779205
RightArm 5.964220 -29.906845 84.639587
RightForeArm -24.224239 -0.000000 21.228932
RightHand -14.374863 -0.000000 10.773358
RightHandThumb1 -24.326973 -0.000000 -32.862282
LeftUpLeg -7.757051 -12.402008 -4.669673
LeftLeg 19.563225 -0.000000 -0.000000
LeftFoot -24.931144 21.434945 -10.041192
LeftToeBase 9.665479 -0.000000 -0.000000
RightUpLeg -23.906521 -12.160781 3.488852
RightLeg 96.549494 -0.000000 -0.000000
RightFoot -15.016298 -8.069996 28.871864
RightToeBase 3.444618 -0.000000 -0.000000
1601
root -2.926108 31.612916 -4.423339 4.776661 8.294409 -2.983235
Spine -3.817648 -6.690677 -2.156647
Head 16.266752 -3.211348 6.675444
LeftShoulder -17.991932 16.144760 13.266919
LeftArm 13.429408 -41.915595 -72.509151
LeftForeArm -8.905049 -0.000000 99.290724
LeftHand -13.135663 -0.000000 15.624297
LeftHandThumb1 -26.253704 0.000000 33.147579
RightShoulder -13.337930 -4.072252 -10.913404
RightArm 6.065519 -29.983454 84.535037
RightForeArm -24.208412 -0.000000 21.069275
RightHand -14.335070 0.000000 10.778794
RightHandThumb1 -24.326973 -0.000000 -32.862282
LeftUpLeg -7.682981 -12.219738 -4.835056
LeftLeg 19.530839 -0.000000 -0.000000
LeftFoot -25.014763 21.674638 -10.144403
LeftToeBase 9.710515 -0.000000 -0.000000
RightUpLeg -24.072281 -13.235531 3.760843
RightLeg 96.374730 -0.000000 -0.000000
RightFoot -14.653388 -8.474546 27.753054
RightToeBase 1.714246 -0.000000 -0.000000
1602
root -2.915643 31.605259 -4.419820 4.745400 7.849697 -2.892605
Spine -3.721451 -6.448559 -2.224424
Head 16.260177 -3.122369 6.513054
LeftShoulder -18.118947 16.329538 13.148314
LeftArm 13.392977 -41.957026 -72.575281
LeftForeArm -8.988161 -0.000000 99.663400
LeftHand -13.270935 -0.000000 15.449287
LeftHandThumb1 -26.253704 0.000000 33.147579
RightShoulder -13.243443 -4.020000 -11.040390
RightArm 6.158072 -30.010694 84.416991
RightForeArm -24.194416 0.000000 20.934580
RightHand -14.323777 -0.000000 10.855647
RightHandThumb1 -24.326973 -0.000000 -32.862282
LeftUpLeg -7.614067 -11.916737 -4.993061
LeftLeg 19.532467 -0.000000 -0.000000
LeftFoot -25.072449 21.747715 -10.212214
LeftToeBase 9.764970 -0.000000 -0.000000
RightUpLeg -24.207414 -14.385157 3.998213
RightLeg 96.201293 -0.000000 -0.000000
RightFoot -14.927060 -8.201263 28.089181
RightToeBase 2.350081 -0.000000 -0.000000
1603
root -2.909106 31.598796 -4.409890 4.692929 7.397791 -2.809975
Spine -3.621130 -6.176952 -2.307210
Head 16.303594 -3.105665 6.366041
LeftShoulder -18.268573 16.465343 13.055310
LeftArm 13.343433 -41.943740 -72.597656
LeftForeArm -9.067840 -0.000000 99.959672
LeftHand -13.241066 0.000000 15.144329
LeftHandThumb1 -26.253704 0.000000 33.147579
RightShoulder -13.171361 -4.007262 -11.127755
RightArm 6.254265 -30.009722 84.270246
RightForeArm -24.245643 -0.000000 20.852481
RightHand -14.345699 0.000000 10.829432
RightHandThumb1 -24.326973 -0.000000 -32.862282
LeftUpLeg -7.506279 -11.521720 -5.129882
LeftLeg 19.522538 -0.000000 -0.000000
LeftFoot -25.164134 21.678760 -10.316785
LeftToeBase 9.810481 -0.000000 -0.000000
RightUpLeg -24.300065 -15.544753 4.226439
RightLeg 96.009756 -0.000000 -0.000000
RightFoot -15.419807 -7.900465 28.994455
RightToeBase 3.429903 -0.000000 -0.000000
1604
root -2.894986 31.591599 -4.405904 4.638904 6.958412 -2.711171
Spine -3.502940 -5.939861 -2.367882
Head 16.316451 -2.995693 6.153618
LeftShoulder -18.375829 16.526471 12.856372
LeftArm 13.101329 -41.965127 -72.329507
LeftForeArm -9.266553 -0.000000 100.311949
LeftHand -13.328517 0.000000 15.201842
LeftHandThumb1 -26.253704 0.000000 33.147579
RightShoulder -13.044586 -3.958345 -11.262525
RightArm 6.324345 -30.027276 84.132648
RightForeArm -24.219946 -0.000000 20.776029
RightHand -14.430206 -0.000000 10.784392
RightHandThumb1 -24.326973 -0.000000 -32.862282
LeftUpLeg -7.403985 -11.125588 -5.308059
LeftLeg 19.495046 -0.000000 -0.000000
LeftFoot -25.133171 21.766512 -10.194445
LeftToeBase 9.729923 -0.000000 -0.000000
RightUpLeg -24.382174 -16.709264 4.381394
RightLeg 95.842774 -0.000000 -0.000000
RightFoot -15.709126 -7.544048 29.526884
RightToeBase 3.554825 -0.000000 -0.000000
1605
root -2.880278 31.585067 -4.397247 4.559904 6.531974 -2.605780
Spine -3.371179 -5.682817 -2.445388
Head 16.376844 -2.997772 5.959619
LeftShoulder -18.536557 16.709005 12.704486
LeftArm 13.194839 -41.972749 -72.450258
LeftForeArm -9.351143 -0.000000 100.549008
LeftHand -13.313978 -0.000000 15.059820
LeftHandThumb1 -26.253704 0.000000 33.147579
RightShoulder -12.941595 -3.930004 -11.376299
RightArm 6.401942 -30.037433 83.964608
RightForeArm -24.168287 -0.000000 20.724540
RightHand -14.470960 -0.000000 10.814264
RightHandThumb1 -24.326973 -0.000000 -32.862282
LeftUpLeg -7.214321 -10.753136 -5.497753
LeftLeg 19.347165 -0.000000 -0.000000
LeftFoot -25.208056 21.792190 -10.321046
LeftToeBase 9.859404 -0.000000 -0.000000
RightUpLeg -24.431043 -17.962400 4.521772
RightLeg 95.655099 -0.000000 -0.000000
RightFoot -16.046466 -7.176854 30.254249
RightToeBase 4.144081 -0.000000 -0.000000
1606
root -2.863883 31.578561 -4.388824 4.488564 6.112317 -2.493750
Spine -3.255915 -5.406833 -2.528839
Head 16.465401 -3.009089 5.786282
LeftShoulder -18.670180 16.872188 12.596178
LeftArm 13.253277 -41.960980 -72.587956
LeftForeArm -9.326643 -0.000000 100.751170
LeftHand -13.311999 -0.000000 14.999454
LeftHandThumb1 -26.253704 0.000000 33.147579
RightShoulder -12.847230 -3.898259 -11.494638
RightArm 6.440659 -30.028396 83.817597
RightForeArm -24.221788 -0.000000 20.676767
RightHand -14.568688 -0.000000 10.719344
RightHandThumb1 -24.326973 -0.000000 -32.862282
LeftUpLeg -7.046037 -10.316051 -5.677883
LeftLeg 19.233158 -0.000000 -0.000000
LeftFoot -25.158342 21.769584 -10.209914
LeftToeBase 9.769732 -0.000000 -0.000000
RightUpLeg -24.479629 -19.255476 4.626362
RightLeg 95.452047 -0.000000 -0.000000
RightFoot -16.384405 -6.716382 31.067352
RightToeBase 5.133805 -0.000000 -0.000000
1607
root -2.845708 31.570877 -4.378698 4.410383 5.718871 -2.352419
Spine -3.130688 -5.146976 -2.648273
Head 16.545270 -2.989158 5.621075
LeftShoulder -18.759964 16.955881 12.481486
LeftArm 13.184269 -41.973785 -72.565398
LeftForeArm -9.443240 -0.000000 100.972187
LeftHand -13.255927 -0.000000 14.949365
LeftHandThumb1 -26.253704 0.000000 33.147579
RightShoulder -12.757335 -3.874666 -11.598792
RightArm 6.497534 -30.043539 83.642380
RightForeArm -24.139040 -0.000000 20.630931
RightHand -14.549240 -0.000000 10.640014
RightHandThumb1 -24.326973 -0.000000 -32.862282
LeftUpLeg -6.880777 -9.763956 -5.894504
LeftLeg 19.136110 -0.000000 -0.000000
LeftFoot -25.138352 21.609760 -10.163236
LeftToeBase 9.784927 -0.000000 -0.000000
RightUpLeg -24.513120 -20.566712 4.686851
RightLeg 95.260655 -0.000000 -0.000000
RightFoot -16.668721 -6.478470 31.297861
RightToeBase 3.690408 -0.000000 -0.000000
1608
root -2.827811 31.564603 -4.370660 4.370156 5.290099 -2.231124
Spine -3.055538 -4.883584 -2.741757
Head 16.650470 -2.948255 5.419155
LeftShoulder -18.918117 17.062231 12.363629
LeftArm 13.257778 -42.012255 -72.729321
LeftForeArm -9.425183 0.000000 101.145831
LeftHand -13.280753 -0.000000 14.883435
LeftHandThumb1 -26.253704 0.000000 33.147579
RightShoulder -12.645983 -3.893489 -11.686530
RightArm 6.596811 -30.007184 83.443836
RightForeArm -24.180019 0.000000 20.589031
RightHand -14.468468 -0.000000 10.722149
RightHandThumb1 -24.326973 -0.000000 -32.862282
LeftUpLeg -6.729014 -9.218784 -6.078216
LeftLeg 18.968511 -0.000000 -0.000000
LeftFoot -25.124530 21.469571 -10.134961
LeftToeBase 9.914692 -0.000000 -0.000000
RightUpLeg -24.590748 -21.835965 4.759862
RightLeg 95.064417 -0.000000 -0.000000
RightFoot -16.872842 -6.059375 31.651840
RightToeBase 3.187540 -0.000000 -0.000000
1609
root -2.808769 31.556836 -4.361584 4.320151 4.902160 -2.080385
Spine -2.968000 -4.632136 -2.865608
Head 16.782928 -2.980419 5.248644
LeftShoulder -19.042296 17.162095 12.252154
LeftArm 13.274498 -42.036922 -72.803281
LeftForeArm -9.468300 -0.000000 101.296841
LeftHand -13.273050 -0.000000 14.848169
LeftHandThumb1 -26.253704 0.000000 33.147579
RightShoulder -12.553358 -3.889602 -11.792708
RightArm 6.667984 -29.975087 83.273962
RightForeArm -24.123083 -0.000000 20.531032
RightHand -14.430349 -0.000000 10.741229
RightHandThumb1 -24.326973 -0.000000 -32.862282
LeftUpLeg -6.525019 -8.797177 -6.296547
LeftLeg 18.717049 -0.000000 -0.000000
LeftFoot -25.097065 21.424556 -10.117627
LeftToeBase 9.981490 -0.000000 -0.000000
RightUpLeg -24.625584 -23.129243 4.730207
RightLeg 94.889717 -0.000000 -0.000000
RightFoot -16.952083 -5.377348 32.171207
RightToeBase 3.590491 -0.000000 -0.000000
1610
root -2.795231 31.548040 -4.351722 4.252324 4.540592 -1.974092
Spine -2.862990 -4.378815 -2.968130
Head 16.912063 -3.051325 5.064290
LeftShoulder -19.152694 17.223774 12.224833
LeftArm 13.244988 -41.995142 -72.883127
LeftForeArm -9.522922 -0.000000 101.418796
LeftHand -13.204047 -0.000000 14.952088
LeftHandThumb1 -26.253704 0.000000 33.147579
RightShoulder -12.473716 -3.863488 -11.879544
RightArm 6.710875 -29.989823 83.097662
RightForeArm -24.058745 -0.000000 20.481179
RightHand -14.384571 0.000000 10.712416
RightHandThumb1 -24.326973 -0.000000 -32.862282
LeftUpLeg -6.403502 -8.144192 -6.460627
LeftLeg 18.663488 -0.000000 -0.000000
LeftFoot -25.070057 21.216533 -9.967015
LeftToeBase 9.935579 -0.000000 -0.000000
RightUpLeg -24.641904 -24.447366 4.745639
RightLeg 94.694699 -0.000000 -0.000000
RightFoot -16.951267 -4.809269 32.464429
RightToeBase 4.119097 -0.000000 -0.000000
